<?xml version="1.0"?>
<svg xmlns="http://www.w3.org/2000/svg" xmlns:xlink="http://www.w3.org/1999/xlink" xmlns:svgjs="http://svgjs.com/svgjs" version="1.1" width="512" height="512" x="0" y="0" viewBox="0 0 512 512" style="enable-background:new 0 0 512 512" xml:space="preserve" class=""><g><g xmlns="http://www.w3.org/2000/svg"><path d="m507.607 294.891-240.417-240.417c-5.858-5.858-15.355-5.858-21.213 0l-141.421 141.422c-5.858 5.858-5.858 15.355 0 21.213l240.416 240.416c5.858 5.858 15.355 5.858 21.213 0l141.421-141.421c5.858-5.858 5.858-15.356.001-21.213zm-251.023-208.597 19.389 19.389c-12.227 5.824-26.551 5.824-38.778 0zm-100.82 139.597-19.389-19.389 19.389-19.389c5.825 12.227 5.825 26.552 0 38.778zm199.815 199.814-19.389-19.389c12.226-5.824 26.551-5.824 38.777 0zm41.359-41.359c-24.978-16.52-57.741-16.52-82.718 0l-136.485-136.484c16.52-24.978 16.52-57.741 0-82.718l37.49-37.49c24.978 16.52 57.741 16.521 82.719 0l136.485 136.485c-16.52 24.978-16.52 57.741 0 82.719zm59.46-59.46c-5.824-12.227-5.824-26.551 0-38.777l19.389 19.389z" fill="#808e9e" data-original="#000000" style=""/><path d="m267.19 217.109c-21.445 21.445-21.445 56.337 0 77.782s56.337 21.445 77.782 0 21.445-56.337 0-77.782c-21.444-21.445-56.337-21.445-77.782 0zm56.569 56.568c-9.748 9.748-25.608 9.748-35.355 0-9.748-9.748-9.748-25.608 0-35.355 9.748-9.748 25.608-9.748 35.355 0s9.747 25.608 0 35.355z" fill="#808e9e" data-original="#000000" style=""/><circle cx="376.792" cy="326.711" r="15" fill="#808e9e" data-original="#000000" style=""/><circle cx="235.371" cy="185.289" r="15" fill="#808e9e" data-original="#000000" style=""/><path d="m185 371.919h-100c-8.284 0-15 6.716-15 15s6.716 15 15 15h100c8.284 0 15-6.716 15-15s-6.716-15-15-15z" fill="#808e9e" data-original="#000000" style=""/><path d="m145 431.919h-110c-8.284 0-15 6.716-15 15s6.716 15 15 15h110c8.284 0 15-6.716 15-15s-6.716-15-15-15z" fill="#808e9e" data-original="#000000" style=""/><path d="m35 341.919h70c8.284 0 15-6.716 15-15s-6.716-15-15-15h-70c-8.284 0-15 6.716-15 15s6.716 15 15 15z" fill="#808e9e" data-original="#000000" style=""/><path d="m50 386.919c0-8.284-6.716-15-15-15h-20c-8.284 0-15 6.716-15 15s6.716 15 15 15h20c8.284 0 15-6.716 15-15z" fill="#808e9e" data-original="#000000" style=""/></g></g></svg>
